<svg version="1.1" id="Layer_1" xmlns="http://www.w3.org/2000/svg" xmlns:xlink="http://www.w3.org/1999/xlink" x="0px" y="0px" viewBox="0 0 300 74" style="enable-background:new 0 0 300 74;" xml:space="preserve">
    <g id="Layer_2_1_">
    </g>
    <g id="Layer_1_1_">
        <g>
            <g>
                <path fill="#fff" d="M69.6,46c-0.4-0.8-0.7-1.7-0.9-2.9c-2.1,2.3-4.8,3.5-8.1,3.5c-3.1,0-5.7-0.9-7.8-2.7s-3.1-4.1-3.1-6.8
				c0-3.4,1.3-6,3.8-7.8s6.1-2.7,10.9-2.7h3.9v-1.8c0-1.5-0.4-2.7-1.1-3.5c-0.8-0.9-2-1.3-3.6-1.3c-1.4,0-2.6,0.3-3.4,1
				c-0.8,0.7-1.2,1.6-1.2,2.8h-8.5c0-1.8,0.6-3.6,1.7-5.1c1.1-1.6,2.8-2.8,4.8-3.7c2.1-0.9,4.4-1.3,7-1.3c3.9,0,7.1,1,9.4,3
				s3.5,4.8,3.5,8.3v13.8c0,3,0.4,5.3,1.3,6.9V46H69.6z M62.5,40c1.3,0,2.4-0.3,3.5-0.8c1.1-0.6,1.8-1.3,2.4-2.3v-5.5h-3.2
				c-4.3,0-6.5,1.5-6.8,4.4v0.5c0,1.1,0.4,1.9,1.1,2.6C60.2,39.7,61.2,40,62.5,40z"></path>
                <path fill="#fff" d="M89.2,14l0.3,3.6c2.3-2.8,5.3-4.2,9.2-4.2c4.1,0,6.9,1.6,8.5,4.9c2.2-3.2,5.4-4.9,9.6-4.9c3.5,0,6,1,7.7,3
				s2.5,5.1,2.5,9.1V46h-8.6V25.6c0-1.8-0.4-3.1-1.1-4c-0.7-0.8-2-1.3-3.7-1.3c-2.6,0-4.3,1.2-5.3,3.7v21.9h-8.5V25.6
				c0-1.8-0.4-3.2-1.1-4s-2-1.2-3.7-1.2c-2.4,0-4.2,1-5.3,3V46h-8.5V14H89.2z"></path>
                <path fill="#fff" d="M149.1,22c-1.2-0.2-2.2-0.2-3.1-0.2c-3.2,0-5.3,1.1-6.3,3.3V46h-8.5V14h8.1l0.2,3.8c1.7-2.9,4.1-4.4,7.1-4.4
				c0.9,0,1.8,0.1,2.7,0.4L149.1,22z"></path>
                <path fill="#fff" d="M171.4,37.8c0-1.8-0.7-3.2-2.1-4.2c-1.4-1.1-3.5-1.9-6.4-2.5c-2.8-0.6-5-1.3-6.6-2.1
				c-1.6-0.8-2.7-1.7-3.5-2.8c-0.8-1.1-1.1-2.5-1.1-4.1c0-2.5,1.1-4.6,3.2-6.2c2.1-1.6,4.8-2.5,8.1-2.5c3.6,0,6.4,0.9,8.6,2.6
				c2.2,1.8,3.2,4.1,3.2,6.9h-3.5c0-1.9-0.8-3.4-2.3-4.7c-1.6-1.2-3.5-1.9-5.9-1.9c-2.3,0-4.2,0.5-5.6,1.5c-1.4,1-2.1,2.4-2.1,4
				s0.6,2.8,1.8,3.7c1.2,0.9,3.3,1.7,6.4,2.4c3.1,0.7,5.4,1.5,7,2.3c1.5,0.8,2.7,1.8,3.4,3s1.1,2.6,1.1,4.2c0,2.7-1.1,4.9-3.3,6.5
				s-5,2.4-8.5,2.4c-3.7,0-6.7-0.9-9-2.7s-3.5-4.1-3.5-6.8h3.5c0.1,2.1,1,3.7,2.6,4.8c1.6,1.2,3.7,1.7,6.4,1.7c2.5,0,4.4-0.5,6-1.6
				C170.6,40.9,171.4,39.5,171.4,37.8z"></path>
                <path fill="#fff" d="M178.6,29.5c0-3.1,0.6-5.8,1.8-8.3s2.9-4.4,5-5.7c2.2-1.4,4.6-2.1,7.4-2.1c4.3,0,7.7,1.5,10.3,4.5
				s4,6.9,4,11.9v0.7c0,3.1-0.6,5.9-1.8,8.3c-1.2,2.5-2.9,4.4-5,5.7c-2.2,1.3-4.6,2-7.4,2c-4.2,0-7.7-1.5-10.3-4.5s-4-6.9-4-11.9
				V29.5z M182.2,30.5c0,3.8,1,7,3,9.4s4.6,3.7,7.8,3.7s5.8-1.2,7.7-3.7c2-2.4,3-5.7,3-9.7v-0.7c0-2.4-0.5-4.7-1.4-6.7
				s-2.2-3.6-3.8-4.7s-3.5-1.7-5.6-1.7c-3.1,0-5.7,1.2-7.7,3.7s-3,5.7-3,9.7V30.5z"></path>
                <path fill="#fff" d="M214.7,46V17h-5.3v-3h5.3v-3.9c0-3.3,0.8-5.8,2.5-7.5c1.7-1.8,4-2.6,7-2.6c1.3,0,2.6,0.2,3.7,0.5l-0.3,2.9
				c-1-0.2-2.1-0.4-3.2-0.4c-1.9,0-3.5,0.6-4.5,1.8c-1.1,1.2-1.6,2.9-1.6,5.2v4h7.6v2.9h-7.6v29L214.7,46L214.7,46z"></path>
                <path fill="#fff" d="M235.4,5.8V14h6.6v2.9h-6.6v21.3c0,1.8,0.3,3.1,1,4c0.6,0.9,1.7,1.3,3.2,1.3c0.6,0,1.5-0.1,2.9-0.3l0.1,2.9
				c-0.9,0.3-2.2,0.5-3.8,0.5c-2.4,0-4.2-0.7-5.3-2.1c-1.1-1.4-1.7-3.5-1.7-6.2V16.9h-5.9V14h5.9V5.8H235.4z"></path>
                <path fill="#fff" d="M259.4,46.5c-2.7,0-5.2-0.7-7.4-2s-3.9-3.2-5.1-5.6c-1.2-2.4-1.8-5.1-1.8-8v-1.3c0-3.1,0.6-5.8,1.8-8.3
				s2.8-4.4,5-5.8c2.1-1.4,4.4-2.1,6.9-2.1c3.9,0,7,1.3,9.2,4c2.3,2.6,3.4,6.3,3.4,10.8v2h-22.8v0.7c0,3.6,1,6.6,3.1,9
				s4.7,3.6,7.8,3.6c1.9,0,3.6-0.3,5-1s2.8-1.8,3.9-3.3l2.2,1.7C268.1,44.7,264.3,46.5,259.4,46.5z M258.7,16.4
				c-2.7,0-4.9,1-6.7,2.9s-2.9,4.6-3.3,7.9h19.2v-0.4c-0.1-3.1-1-5.6-2.6-7.5C263.5,17.4,261.4,16.4,258.7,16.4z"></path>
                <path fill="#fff" d="M287.7,43.6c2.5,0,4.5-0.7,6.2-2.1c1.7-1.4,2.6-3.2,2.7-5.4h3.4c-0.1,1.9-0.7,3.7-1.8,5.3
				c-1.1,1.6-2.6,2.9-4.5,3.8c-1.9,0.9-3.9,1.4-6,1.4c-4.2,0-7.5-1.5-10-4.4c-2.4-2.9-3.7-6.8-3.7-11.7v-1.1c0-3.1,0.6-5.9,1.7-8.4
				c1.1-2.4,2.7-4.3,4.7-5.6c2.1-1.3,4.5-2,7.2-2c3.5,0,6.4,1,8.7,3.1c2.3,2.1,3.5,4.8,3.6,8.2h-3.4c-0.2-2.5-1.1-4.5-2.7-6.1
				c-1.6-1.5-3.7-2.3-6.2-2.3c-3.2,0-5.7,1.2-7.4,3.5c-1.8,2.3-2.6,5.5-2.6,9.7v1c0,4.1,0.9,7.3,2.6,9.5
				C282,42.4,284.5,43.6,287.7,43.6z"></path>
            </g>
            <path fill="#ff4867" d="M41.8,27.1c0-0.3,0-0.6-0.1-0.9c0-0.4-0.1-0.7-0.1-1.1c0-0.2,0-0.3-0.1-0.5c-0.1-0.5-0.2-1.1-0.3-1.6
			C39.1,13.7,30.6,6.7,20.6,6.9C9.3,7.1,0.1,16.3,0,27.6c-0.1,11.6,9.3,21.1,20.9,21.1c2.4,0,4.7-0.4,6.8-1.1
			c0.2-0.1,0.3-0.1,0.5-0.2c0.2-0.1,0.3-0.1,0.5-0.2c0.2-0.1,0.3-0.1,0.5-0.2l0,0c1.5-0.6,2.9-1.5,4.2-2.4V27.1l0,0
			c-0.3-6.6-5.8-11.9-12.5-11.9c-6.9,0-12.5,5.7-12.5,12.6S14,40.3,20.9,40.3c3.2,0,6.1-1.2,8.3-3.2v5.3c-2.5,1.5-5.5,2.2-8.6,2.2
			c-9-0.2-16.3-7.6-16.4-16.7c0-9.3,7.5-16.8,16.7-16.8c9.3,0,16.8,7.6,16.8,16.9v21.3c0,2.3,1.9,4.2,4.2,4.2L41.8,27.1L41.8,27.1z
			 M20.8,36.1c-4.6,0-8.3-3.7-8.3-8.3s3.7-8.3,8.3-8.3s8.3,3.7,8.3,8.3C29.2,32.3,25.4,36.1,20.8,36.1z"></path>
        </g>
    </g>
    <g>
        <path fill="#fff" d="M9.1,68l1.8-7.2h1.6l-2.7,9.4H8.5l-2.3-7.1L4,70.2H2.7L0,60.8h1.6l1.8,7l2.2-7h1.3L9.1,68z"></path>
        <path fill="#fff" d="M17.4,70.4c-1.3,0-2.3-0.4-3.1-1.3s-1.2-2-1.2-3.4v-0.3c0-0.9,0.2-1.8,0.5-2.5s0.9-1.3,1.5-1.7
		c0.6-0.4,1.3-0.6,2.1-0.6c1.2,0,2.2,0.4,2.8,1.2c0.7,0.8,1,2,1,3.5V66h-6.4c0,0.9,0.3,1.7,0.8,2.2s1.2,0.9,2,0.9
		c0.6,0,1-0.1,1.4-0.3c0.4-0.2,0.7-0.5,1-0.9l1,0.8C20.2,69.8,19,70.4,17.4,70.4z M17.2,62c-0.6,0-1.2,0.2-1.6,0.7
		c-0.4,0.5-0.7,1.1-0.8,2h4.7v-0.1c0-0.8-0.3-1.4-0.7-1.9C18.4,62.2,17.9,62,17.2,62z"></path>
        <path fill="#fff" d="M30.3,65.6c0,1.4-0.3,2.6-1,3.5c-0.7,0.9-1.5,1.3-2.7,1.3c-1.2,0-2.1-0.4-2.7-1.3l-0.1,1.1h-1.5V56.9h1.6v5
		c0.6-0.8,1.5-1.2,2.7-1.2s2,0.4,2.7,1.3c0.7,0.9,1,2,1,3.5V65.6z M28.7,65.5c0-1.1-0.2-1.9-0.6-2.5S27,62,26.2,62
		c-1.1,0-1.8,0.5-2.3,1.5v4.1c0.5,1,1.3,1.5,2.3,1.5c0.8,0,1.4-0.3,1.8-0.9C28.5,67.6,28.7,66.7,28.7,65.5z"></path>
        <path fill="#fff" d="M35.1,65.5c0-1.4,0.3-2.6,1-3.5c0.7-0.9,1.6-1.3,2.7-1.3c1.1,0,2,0.4,2.6,1.1v-4.9H43v13.3h-1.5l-0.1-1
		c-0.6,0.8-1.5,1.2-2.7,1.2c-1.1,0-2-0.4-2.7-1.3s-1-2.1-1-3.5V65.5z M36.7,65.6c0,1.1,0.2,1.9,0.7,2.5c0.4,0.6,1,0.9,1.8,0.9
		c1,0,1.8-0.5,2.2-1.4v-4.3c-0.5-0.9-1.2-1.3-2.2-1.3c-0.8,0-1.4,0.3-1.8,0.9C36.9,63.6,36.7,64.5,36.7,65.6z"></path>
        <path fill="#fff" d="M48.7,70.4c-1.3,0-2.3-0.4-3.1-1.3s-1.2-2-1.2-3.4v-0.3c0-0.9,0.2-1.8,0.5-2.5s0.9-1.3,1.5-1.7
		c0.6-0.4,1.3-0.6,2.1-0.6c1.2,0,2.2,0.4,2.8,1.2c0.7,0.8,1,2,1,3.5V66H46c0,0.9,0.3,1.7,0.8,2.2s1.2,0.9,2,0.9c0.6,0,1-0.1,1.4-0.3
		c0.4-0.2,0.7-0.5,1-0.9l1,0.8C51.5,69.8,50.3,70.4,48.7,70.4z M48.5,62c-0.6,0-1.2,0.2-1.6,0.7c-0.4,0.5-0.7,1.1-0.8,2h4.7v-0.1
		c0-0.8-0.3-1.4-0.7-1.9C49.7,62.2,49.2,62,48.5,62z"></path>
        <path fill="#fff" d="M59.1,67.7c0-0.4-0.2-0.8-0.5-1c-0.3-0.2-0.9-0.4-1.7-0.6c-0.8-0.2-1.5-0.4-1.9-0.6s-0.8-0.5-1.1-0.9
		c-0.2-0.3-0.3-0.7-0.3-1.2c0-0.8,0.3-1.4,1-2c0.7-0.5,1.5-0.8,2.5-0.8c1.1,0,1.9,0.3,2.6,0.8c0.7,0.6,1,1.3,1,2.1H59
		c0-0.4-0.2-0.8-0.6-1.1C58,62.1,57.6,62,57,62c-0.6,0-1,0.1-1.4,0.4c-0.3,0.3-0.5,0.6-0.5,1c0,0.4,0.2,0.7,0.5,0.9
		c0.3,0.2,0.9,0.4,1.7,0.6c0.8,0.2,1.4,0.4,1.9,0.6s0.9,0.5,1.1,0.9s0.4,0.8,0.4,1.3c0,0.8-0.3,1.5-1,2c-0.7,0.5-1.5,0.8-2.6,0.8
		c-0.8,0-1.4-0.1-2-0.4c-0.6-0.3-1-0.6-1.4-1.1c-0.3-0.5-0.5-1-0.5-1.6h1.6c0,0.5,0.2,1,0.6,1.3c0.4,0.3,0.9,0.5,1.6,0.5
		c0.6,0,1.1-0.1,1.5-0.4S59.1,68.2,59.1,67.7z"></path>
        <path fill="#fff" d="M62.2,58.4c0-0.3,0.1-0.5,0.2-0.7c0.2-0.2,0.4-0.3,0.7-0.3s0.5,0.1,0.7,0.3c0.2,0.2,0.2,0.4,0.2,0.7
		S64,58.8,63.8,59c-0.2,0.2-0.4,0.3-0.7,0.3s-0.5-0.1-0.7-0.3C62.2,58.8,62.2,58.6,62.2,58.4z M63.9,70.2h-1.6v-9.4h1.6V70.2z"></path>
        <path fill="#fff" d="M65.5,65.5c0-1.5,0.3-2.6,1-3.5c0.7-0.9,1.6-1.3,2.7-1.3c1.1,0,2,0.4,2.7,1.2l0.1-1h1.5V70
		c0,1.2-0.4,2.2-1.1,2.9c-0.7,0.7-1.7,1.1-2.9,1.1c-0.7,0-1.3-0.1-2-0.4c-0.6-0.3-1.1-0.7-1.5-1.2l0.8-1c0.7,0.9,1.5,1.3,2.5,1.3
		c0.8,0,1.4-0.2,1.8-0.7c0.4-0.4,0.7-1.1,0.7-1.9v-0.8c-0.6,0.7-1.5,1.1-2.6,1.1c-1.1,0-2-0.4-2.7-1.3S65.5,67,65.5,65.5z
		 M67.1,65.6c0,1.1,0.2,1.9,0.6,2.5c0.4,0.6,1,0.9,1.8,0.9c1,0,1.8-0.5,2.2-1.4v-4.3c-0.5-0.9-1.2-1.3-2.2-1.3
		c-0.8,0-1.4,0.3-1.8,0.9C67.3,63.6,67.1,64.5,67.1,65.6z"></path>
        <path fill="#fff" d="M76.7,60.8l0.1,1.2c0.7-0.9,1.7-1.4,2.8-1.4c2,0,3,1.1,3,3.4v6.2h-1.6V64c0-0.7-0.2-1.2-0.5-1.5
		c-0.3-0.3-0.8-0.5-1.4-0.5c-0.5,0-1,0.1-1.4,0.4c-0.4,0.3-0.7,0.6-0.9,1.1v6.7h-1.6v-9.4H76.7z"></path>
        <path fill="#fff" d="M93.5,72.6h-1.3v-15h1.3V72.6z"></path>
        <path fill="#fff" d="M102.7,65.5c0-1.4,0.3-2.6,1-3.5c0.7-0.9,1.6-1.3,2.7-1.3c1.1,0,2,0.4,2.6,1.1v-4.9h1.6v13.3h-1.5l-0.1-1
		c-0.6,0.8-1.5,1.2-2.7,1.2c-1.1,0-2-0.4-2.7-1.3s-1-2.1-1-3.5V65.5z M104.3,65.6c0,1.1,0.2,1.9,0.7,2.5c0.4,0.6,1,0.9,1.8,0.9
		c1,0,1.8-0.5,2.2-1.4v-4.3c-0.5-0.9-1.2-1.3-2.2-1.3c-0.8,0-1.4,0.3-1.8,0.9C104.6,63.6,104.3,64.5,104.3,65.6z"></path>
        <path fill="#fff" d="M116.4,70.4c-1.3,0-2.3-0.4-3.1-1.3s-1.2-2-1.2-3.4v-0.3c0-0.9,0.2-1.8,0.5-2.5s0.9-1.3,1.5-1.7
		c0.6-0.4,1.3-0.6,2.1-0.6c1.2,0,2.2,0.4,2.8,1.2c0.7,0.8,1,2,1,3.5V66h-6.4c0,0.9,0.3,1.7,0.8,2.2s1.2,0.9,2,0.9
		c0.6,0,1-0.1,1.4-0.3c0.4-0.2,0.7-0.5,1-0.9l1,0.8C119.2,69.8,118,70.4,116.4,70.4z M116.2,62c-0.6,0-1.2,0.2-1.6,0.7
		c-0.4,0.5-0.7,1.1-0.8,2h4.7v-0.1c0-0.8-0.3-1.4-0.7-1.9C117.4,62.2,116.9,62,116.2,62z"></path>
        <path fill="#fff" d="M124.3,68.1l2.3-7.2h1.6l-3.4,9.4h-1.2l-3.4-9.4h1.6L124.3,68.1z"></path>
        <path fill="#fff" d="M132.9,70.4c-1.3,0-2.3-0.4-3.1-1.3s-1.2-2-1.2-3.4v-0.3c0-0.9,0.2-1.8,0.5-2.5s0.9-1.3,1.5-1.7
		c0.6-0.4,1.3-0.6,2.1-0.6c1.2,0,2.2,0.4,2.8,1.2c0.7,0.8,1,2,1,3.5V66h-6.4c0,0.9,0.3,1.7,0.8,2.2s1.2,0.9,2,0.9
		c0.6,0,1-0.1,1.4-0.3c0.4-0.2,0.7-0.5,1-0.9l1,0.8C135.7,69.8,134.5,70.4,132.9,70.4z M132.7,62c-0.6,0-1.2,0.2-1.6,0.7
		c-0.4,0.5-0.7,1.1-0.8,2h4.7v-0.1c0-0.8-0.3-1.4-0.7-1.9C133.9,62.2,133.4,62,132.7,62z"></path>
        <path fill="#fff" d="M139.6,70.2H138V56.9h1.6V70.2z"></path>
        <path fill="#fff" d="M141.1,65.5c0-0.9,0.2-1.7,0.5-2.5c0.4-0.7,0.9-1.3,1.5-1.7c0.6-0.4,1.4-0.6,2.2-0.6c1.3,0,2.3,0.4,3.1,1.3
		c0.8,0.9,1.2,2.1,1.2,3.5v0.1c0,0.9-0.2,1.7-0.5,2.5c-0.3,0.7-0.8,1.3-1.5,1.7s-1.4,0.6-2.2,0.6c-1.3,0-2.3-0.4-3.1-1.3
		s-1.2-2.1-1.2-3.5V65.5z M142.7,65.6c0,1,0.2,1.9,0.7,2.5c0.5,0.6,1.1,0.9,1.9,0.9c0.8,0,1.5-0.3,1.9-1c0.5-0.6,0.7-1.5,0.7-2.7
		c0-1-0.2-1.9-0.7-2.5s-1.1-1-1.9-1c-0.8,0-1.4,0.3-1.9,0.9C143,63.6,142.7,64.5,142.7,65.6z"></path>
        <path fill="#fff" d="M158.9,65.6c0,1.4-0.3,2.6-1,3.5s-1.5,1.3-2.7,1.3c-1.1,0-2-0.4-2.7-1.1v4.5H151v-13h1.5l0.1,1
		c0.7-0.8,1.6-1.2,2.7-1.2c1.1,0,2,0.4,2.7,1.3c0.7,0.9,1,2,1,3.6V65.6z M157.3,65.5c0-1.1-0.2-1.9-0.7-2.5
		c-0.4-0.6-1.1-0.9-1.9-0.9c-1,0-1.7,0.4-2.2,1.3v4.5c0.5,0.9,1.2,1.3,2.2,1.3c0.8,0,1.4-0.3,1.8-0.9
		C157.1,67.6,157.3,66.7,157.3,65.5z"></path>
        <path fill="#fff" d="M161.9,60.8l0,1c0.7-0.8,1.6-1.2,2.8-1.2c1.3,0,2.2,0.5,2.7,1.5c0.3-0.5,0.7-0.8,1.2-1.1
		c0.5-0.3,1.1-0.4,1.8-0.4c2.1,0,3.1,1.1,3.1,3.3v6.3h-1.6V64c0-0.7-0.2-1.2-0.5-1.5c-0.3-0.3-0.8-0.5-1.5-0.5
		c-0.6,0-1.1,0.2-1.5,0.5c-0.4,0.4-0.6,0.8-0.7,1.4v6.2h-1.6v-6.2c0-1.4-0.7-2-2-2c-1.1,0-1.8,0.4-2.2,1.3v6.9h-1.6v-9.4H161.9z"></path>
        <path fill="#fff" d="M179.2,70.4c-1.3,0-2.3-0.4-3.1-1.3c-0.8-0.8-1.2-2-1.2-3.4v-0.3c0-0.9,0.2-1.8,0.5-2.5s0.9-1.3,1.5-1.7
		c0.6-0.4,1.3-0.6,2.1-0.6c1.2,0,2.2,0.4,2.8,1.2c0.7,0.8,1,2,1,3.5V66h-6.4c0,0.9,0.3,1.7,0.8,2.2c0.5,0.6,1.2,0.9,2,0.9
		c0.6,0,1-0.1,1.4-0.3c0.4-0.2,0.7-0.5,1-0.9l1,0.8C181.9,69.8,180.8,70.4,179.2,70.4z M179,62c-0.6,0-1.2,0.2-1.6,0.7
		c-0.4,0.5-0.7,1.1-0.8,2h4.7v-0.1c0-0.8-0.3-1.4-0.7-1.9C180.2,62.2,179.7,62,179,62z"></path>
        <path fill="#fff" d="M185.6,60.8l0.1,1.2c0.7-0.9,1.7-1.4,2.8-1.4c2,0,3,1.1,3,3.4v6.2h-1.6V64c0-0.7-0.2-1.2-0.5-1.5
		c-0.3-0.3-0.8-0.5-1.4-0.5c-0.5,0-1,0.1-1.4,0.4c-0.4,0.3-0.7,0.6-0.9,1.1v6.7h-1.6v-9.4H185.6z"></path>
        <path fill="#fff" d="M195.4,58.6v2.3h1.8v1.2h-1.8v5.8c0,0.4,0.1,0.7,0.2,0.8c0.2,0.2,0.4,0.3,0.8,0.3c0.2,0,0.4,0,0.8-0.1v1.3
		c-0.4,0.1-0.8,0.2-1.2,0.2c-0.7,0-1.3-0.2-1.6-0.7s-0.5-1.1-0.5-1.9v-5.8h-1.7v-1.2h1.7v-2.3H195.4z"></path>
        <path fill="#fff" d="M207.6,72.6h-1.3v-15h1.3V72.6z"></path>
        <path fill="#fff" d="M222.7,67.7c0-0.4-0.2-0.8-0.5-1c-0.3-0.2-0.9-0.4-1.7-0.6c-0.8-0.2-1.5-0.4-1.9-0.6c-0.5-0.2-0.8-0.5-1.1-0.9
		s-0.3-0.7-0.3-1.2c0-0.8,0.3-1.4,1-2c0.6-0.5,1.5-0.8,2.5-0.8c1.1,0,1.9,0.3,2.6,0.8c0.7,0.6,1,1.3,1,2.1h-1.6
		c0-0.4-0.2-0.8-0.6-1.1c-0.4-0.3-0.8-0.5-1.4-0.5c-0.6,0-1,0.1-1.4,0.4s-0.5,0.6-0.5,1c0,0.4,0.2,0.7,0.5,0.9
		c0.3,0.2,0.9,0.4,1.7,0.6c0.8,0.2,1.4,0.4,1.9,0.6s0.9,0.5,1.1,0.9c0.2,0.4,0.4,0.8,0.4,1.3c0,0.8-0.3,1.5-1,2
		c-0.7,0.5-1.5,0.8-2.6,0.8c-0.8,0-1.4-0.1-2-0.4c-0.6-0.3-1-0.6-1.4-1.1c-0.3-0.5-0.5-1-0.5-1.6h1.6c0,0.5,0.2,1,0.6,1.3
		s0.9,0.5,1.6,0.5c0.6,0,1.1-0.1,1.5-0.4C222.5,68.5,222.7,68.2,222.7,67.7z"></path>
        <path fill="#fff" d="M229.6,70.4c-1.3,0-2.3-0.4-3.1-1.3c-0.8-0.8-1.2-2-1.2-3.4v-0.3c0-0.9,0.2-1.8,0.5-2.5s0.9-1.3,1.5-1.7
		c0.6-0.4,1.3-0.6,2.1-0.6c1.2,0,2.2,0.4,2.8,1.2c0.7,0.8,1,2,1,3.5V66h-6.4c0,0.9,0.3,1.7,0.8,2.2c0.5,0.6,1.2,0.9,2,0.9
		c0.6,0,1-0.1,1.4-0.3c0.4-0.2,0.7-0.5,1-0.9l1,0.8C232.4,69.8,231.2,70.4,229.6,70.4z M229.4,62c-0.6,0-1.2,0.2-1.6,0.7
		c-0.4,0.5-0.7,1.1-0.8,2h4.7v-0.1c0-0.8-0.3-1.4-0.7-1.9C230.6,62.2,230.1,62,229.4,62z"></path>
        <path fill="#fff" d="M234.1,65.5c0-0.9,0.2-1.7,0.5-2.5s0.9-1.3,1.5-1.7c0.6-0.4,1.4-0.6,2.2-0.6c1.3,0,2.3,0.4,3.1,1.3
		c0.8,0.9,1.2,2.1,1.2,3.5v0.1c0,0.9-0.2,1.7-0.5,2.5c-0.3,0.7-0.8,1.3-1.5,1.7c-0.6,0.4-1.4,0.6-2.2,0.6c-1.3,0-2.3-0.4-3.1-1.3
		c-0.8-0.9-1.2-2.1-1.2-3.5V65.5z M235.7,65.6c0,1,0.2,1.9,0.7,2.5c0.5,0.6,1.1,0.9,1.9,0.9c0.8,0,1.5-0.3,1.9-1s0.7-1.5,0.7-2.7
		c0-1-0.2-1.9-0.7-2.5s-1.1-1-1.9-1c-0.8,0-1.4,0.3-1.9,0.9C236,63.6,235.7,64.5,235.7,65.6z"></path>
        <path fill="#fff" d="M253.2,72.6h-1.3v-15h1.3V72.6z"></path>
        <path fill="#fff" d="M268.3,67.7c0-0.4-0.2-0.8-0.5-1c-0.3-0.2-0.9-0.4-1.7-0.6c-0.8-0.2-1.5-0.4-1.9-0.6c-0.5-0.2-0.8-0.5-1.1-0.9
		s-0.3-0.7-0.3-1.2c0-0.8,0.3-1.4,1-2c0.6-0.5,1.5-0.8,2.5-0.8c1.1,0,1.9,0.3,2.6,0.8c0.7,0.6,1,1.3,1,2.1h-1.6
		c0-0.4-0.2-0.8-0.6-1.1c-0.4-0.3-0.8-0.5-1.4-0.5c-0.6,0-1,0.1-1.4,0.4s-0.5,0.6-0.5,1c0,0.4,0.2,0.7,0.5,0.9
		c0.3,0.2,0.9,0.4,1.7,0.6c0.8,0.2,1.4,0.4,1.9,0.6s0.9,0.5,1.1,0.9c0.2,0.4,0.4,0.8,0.4,1.3c0,0.8-0.3,1.5-1,2
		c-0.7,0.5-1.5,0.8-2.6,0.8c-0.8,0-1.4-0.1-2-0.4c-0.6-0.3-1-0.6-1.4-1.1c-0.3-0.5-0.5-1-0.5-1.6h1.6c0,0.5,0.2,1,0.6,1.3
		s0.9,0.5,1.6,0.5c0.6,0,1.1-0.1,1.5-0.4C268.1,68.5,268.3,68.2,268.3,67.7z"></path>
        <path fill="#fff" d="M272.9,60.8l0,1c0.7-0.8,1.6-1.2,2.8-1.2c1.3,0,2.2,0.5,2.7,1.5c0.3-0.5,0.7-0.8,1.2-1.1
		c0.5-0.3,1.1-0.4,1.8-0.4c2.1,0,3.1,1.1,3.1,3.3v6.3h-1.6V64c0-0.7-0.2-1.2-0.5-1.5c-0.3-0.3-0.8-0.5-1.5-0.5
		c-0.6,0-1.1,0.2-1.5,0.5c-0.4,0.4-0.6,0.8-0.7,1.4v6.2h-1.6v-6.2c0-1.4-0.7-2-2-2c-1.1,0-1.8,0.4-2.2,1.3v6.9h-1.6v-9.4H272.9z"></path>
        <path fill="#fff" d="M287.8,60.8l0,1c0.7-0.8,1.6-1.2,2.8-1.2c1.3,0,2.2,0.5,2.7,1.5c0.3-0.5,0.7-0.8,1.2-1.1
		c0.5-0.3,1.1-0.4,1.8-0.4c2.1,0,3.1,1.1,3.1,3.3v6.3h-1.6V64c0-0.7-0.2-1.2-0.5-1.5c-0.3-0.3-0.8-0.5-1.5-0.5
		c-0.6,0-1.1,0.2-1.5,0.5c-0.4,0.4-0.6,0.8-0.7,1.4v6.2H292v-6.2c0-1.4-0.7-2-2-2c-1.1,0-1.8,0.4-2.2,1.3v6.9h-1.6v-9.4H287.8z"></path>
    </g>
</svg>
