<svg id="Layer_1" enable-background="new 0 0 450 450" height="512" viewBox="0 0 450 450" width="512" xmlns="http://www.w3.org/2000/svg" xmlns:xlink="http://www.w3.org/1999/xlink"><linearGradient id="SVGID_1_" gradientTransform="matrix(1 0 0 -1 0 450)" gradientUnits="userSpaceOnUse" x1="28.859" x2="421.197" y1="421.159" y2="28.822"><stop offset="0" stop-color="#00dbde"/><stop offset="1" stop-color="#fc00ff"/></linearGradient><path d="m407.2 30.5h-364.4c-20.8 0-37.8 17-37.8 37.8v313.3c0 20.9 17 37.9 37.9 37.9h364.3c20.9 0 37.9-17 37.9-37.9v-313.3c-.1-20.8-17.1-37.8-37.9-37.8zm-364.4 10h364.3c15.4 0 27.9 12.5 27.9 27.9v40h-420v-40c0-15.4 12.5-27.9 27.8-27.9zm364.4 369h-364.4c-15.3 0-27.8-12.5-27.8-27.9v-263.2h420v263.2c0 15.4-12.5 27.9-27.8 27.9zm-340.9-317.5c9.7 0 17.6-7.9 17.6-17.6s-7.9-17.6-17.6-17.6-17.6 7.9-17.6 17.6 7.9 17.6 17.6 17.6zm0-25.2c4.2 0 7.6 3.4 7.6 7.6s-3.4 7.6-7.6 7.6-7.6-3.4-7.6-7.6 3.4-7.6 7.6-7.6zm48.7 25.2c9.7 0 17.6-7.9 17.6-17.6s-7.9-17.6-17.6-17.6-17.6 7.9-17.6 17.6 7.9 17.6 17.6 17.6zm0-25.2c4.2 0 7.6 3.4 7.6 7.6s-3.4 7.6-7.6 7.6-7.6-3.4-7.6-7.6 3.4-7.6 7.6-7.6zm48.8 25.2c9.7 0 17.6-7.9 17.6-17.6s-7.9-17.6-17.6-17.6-17.6 7.9-17.6 17.6 7.9 17.6 17.6 17.6zm0-25.2c4.2 0 7.6 3.4 7.6 7.6s-3.4 7.6-7.6 7.6-7.6-3.4-7.6-7.6 3.4-7.6 7.6-7.6zm242.9 124.1c0 2.8-2.2 5-5 5h-154.2c-2.8 0-5-2.2-5-5s2.2-5 5-5h154.3c2.7 0 4.9 2.2 4.9 5zm0 36.5c0 2.8-2.2 5-5 5h-154.2c-2.8 0-5-2.2-5-5s2.2-5 5-5h154.3c2.7 0 4.9 2.3 4.9 5zm0 36.6c0 2.8-2.2 5-5 5h-154.2c-2.8 0-5-2.2-5-5s2.2-5 5-5h154.3c2.7 0 4.9 2.2 4.9 5zm0 36.5c0 2.8-2.2 5-5 5h-154.2c-2.8 0-5-2.2-5-5s2.2-5 5-5h154.3c2.7 0 4.9 2.2 4.9 5zm0 36.5c0 2.8-2.2 5-5 5h-154.2c-2.8 0-5-2.2-5-5s2.2-5 5-5h154.3c2.7 0 4.9 2.3 4.9 5zm-232.8-131c-.4-2.4-2.5-4.2-4.9-4.2h-17.8v-13.2c0-12.8-10.4-23.1-23.1-23.1h-19.2c-12.8 0-23.1 10.4-23.1 23.1v13.2h-17.9c-2.4 0-4.5 1.8-4.9 4.2l-19.3 116.5c-1.5 8.9 1.2 18 7.5 25.4 7.6 9 19.7 14.5 31.6 14.5h71.4c11.9 0 24-5.6 31.6-14.5 6.3-7.4 9-16.5 7.5-25.4zm-78.2-17.3c0-7.3 5.9-13.1 13.1-13.1h19.2c7.3 0 13.1 5.9 13.1 13.1v13.2h-45.5zm-23.5 23.1h92.6l16.6 100.1h-125.8zm105.9 129.6c-5.8 6.8-14.9 11-23.9 11h-71.4c-9 0-18.2-4.2-23.9-11-3.1-3.6-6.5-9.6-5.2-17.3l.4-2.2h128.9l.4 2.2c1.2 7.7-2.2 13.7-5.3 17.3z" fill="url(#SVGID_1_)"/></svg>