<svg id="Layer_1" enable-background="new 0 0 450 450" height="512" viewBox="0 0 450 450" width="512" xmlns="http://www.w3.org/2000/svg" xmlns:xlink="http://www.w3.org/1999/xlink"><linearGradient id="SVGID_1_" gradientTransform="matrix(1 0 0 -1 0 452)" gradientUnits="userSpaceOnUse" x1="35.001" x2="415.359" y1="416.436" y2="36.078"><stop offset="0" stop-color="#00dbde"/><stop offset="1" stop-color="#fc00ff"/></linearGradient><path d="m400.38 227.6h-350.24c-11.54 0-20.93-10.41-20.93-23.2v-24.82c0-12.79 9.39-23.2 20.93-23.2h350.25c11.54 0 20.93 10.41 20.93 23.2v24.82c0 12.8-9.39 23.2-20.94 23.2zm-350.24-61.22c-5.93 0-10.94 6.05-10.94 13.2v24.82c0 7.16 5.01 13.2 10.94 13.2h350.25c5.93 0 10.93-6.05 10.93-13.2v-24.82c0-7.16-5.01-13.2-10.93-13.2zm87.91 61.22h-87.91c-11.54 0-20.93-10.41-20.93-23.2v-24.82c0-12.79 9.39-23.2 20.93-23.2h87.91c2.76 0 5 2.24 5 5v61.23c0 2.76-2.24 4.99-5 4.99zm-87.91-61.22c-5.93 0-10.94 6.05-10.94 13.2v24.82c0 7.16 5.01 13.2 10.94 13.2h82.91v-51.23zm159.54 42.75c-1.29 0-2.57-.5-3.52-1.45l-13.72-13.6-13.72 13.6c-1.43 1.42-3.58 1.84-5.44 1.06s-3.08-2.6-3.08-4.62v-22.78c0-2.76 2.24-5 5-5s5 2.24 5 5v10.79l8.72-8.64c1.95-1.93 5.09-1.93 7.04 0l8.72 8.64v-10.79c0-2.76 2.24-5 5-5s5 2.24 5 5v22.78c0 2.02-1.21 3.84-3.08 4.62-.62.26-1.28.39-1.92.39zm58.28 0c-1.29 0-2.57-.5-3.52-1.45l-13.72-13.6-13.72 13.6c-1.43 1.42-3.58 1.84-5.44 1.06s-3.08-2.6-3.08-4.62v-22.78c0-2.76 2.24-5 5-5s5 2.24 5 5v10.79l8.72-8.64c1.95-1.93 5.09-1.93 7.04 0l8.72 8.64v-10.79c0-2.76 2.24-5 5-5s5 2.24 5 5v22.78c0 2.02-1.21 3.84-3.08 4.62-.62.26-1.28.39-1.92.39zm58.28 0c-1.29 0-2.57-.5-3.52-1.45l-13.72-13.6-13.72 13.6c-1.43 1.42-3.58 1.84-5.44 1.06s-3.08-2.6-3.08-4.62v-22.78c0-2.76 2.24-5 5-5s5 2.24 5 5v10.79l8.72-8.64c1.95-1.93 5.09-1.93 7.04 0l8.72 8.64v-10.79c0-2.76 2.24-5 5-5s5 2.24 5 5v22.78c0 2.02-1.21 3.84-3.08 4.62-.62.26-1.27.39-1.92.39zm-237.69-.89c-4.79 0-9.57-1.82-13.21-5.46-7.28-7.29-7.28-19.14 0-26.42s19.14-7.29 26.42 0c7.29 7.29 7.29 19.14 0 26.42-3.64 3.64-8.42 5.46-13.21 5.46zm0-27.36c-2.22 0-4.45.85-6.14 2.54-3.39 3.39-3.39 8.9 0 12.28 3.39 3.39 8.9 3.39 12.28 0 3.39-3.39 3.39-8.9 0-12.28-1.69-1.69-3.91-2.54-6.14-2.54zm-18.54 32.22c-1.28 0-2.56-.49-3.54-1.46-1.95-1.95-1.95-5.12 0-7.07l8.86-8.86c1.95-1.95 5.12-1.95 7.07 0s1.95 5.12 0 7.07l-8.86 8.86c-.97.98-2.25 1.46-3.53 1.46zm277.06 121.68h-243.62c-2.76 0-5-2.24-5-5s2.24-5 5-5h243.61c2.76 0 5 2.24 5 5s-2.23 5-4.99 5zm-32.92 25.07h-177.77c-2.76 0-5-2.24-5-5s2.24-5 5-5h177.77c2.76 0 5 2.24 5 5s-2.24 5-5 5zm-123.5-49.59h-93.71c-7.15 0-12.96-5.82-12.96-12.96v-41.65c0-7.15 5.82-12.96 12.96-12.96h93.71c7.15 0 12.96 5.81 12.96 12.96v41.65c.01 7.14-5.81 12.96-12.96 12.96zm-93.71-57.58c-1.61 0-2.96 1.36-2.96 2.96v41.65c0 1.61 1.36 2.96 2.96 2.96h93.71c1.61 0 2.96-1.36 2.96-2.96v-41.65c0-1.61-1.36-2.96-2.96-2.96zm256.64 57.58h-119.44c-7.15 0-12.96-5.82-12.96-12.96v-41.65c0-7.15 5.81-12.96 12.96-12.96h119.44c7.15 0 12.96 5.81 12.96 12.96v41.65c0 7.14-5.81 12.96-12.96 12.96zm-119.44-57.58c-1.6 0-2.96 1.36-2.96 2.96v41.65c0 1.61 1.36 2.96 2.96 2.96h119.44c1.61 0 2.96-1.36 2.96-2.96v-41.65c0-1.61-1.36-2.96-2.96-2.96zm-182.34 160.43c-12.61 0-24.5-4.94-33.5-13.92-9.05-9.03-14.04-21.01-14.04-33.71v-279.48c0-26.26 21.37-47.63 47.63-47.63h346.55c26.26 0 47.63 21.37 47.63 47.63 0 16.59.03 44.14.07 75.68.11 88.89.24 199.51-.15 206.55-1.26 21.79-17.12 39.88-38.57 44.02-.31.06-.62.09-.94.09l-354.58.77c-.03 0-.07 0-.1 0zm354.68-5.77h.01zm-354.59-358.97c-20.75 0-37.63 16.88-37.63 37.63v279.47c0 10.03 3.94 19.49 11.1 26.63 7.11 7.09 16.5 11 26.44 11h.08l354.1-.77c16.72-3.43 29.04-17.63 30.03-34.68.38-6.74.24-121.88.14-205.96-.04-31.55-.07-59.1-.07-75.7 0-20.75-16.88-37.63-37.63-37.63zm389.18 65.24h-431.81c-2.76 0-5-2.24-5-5s2.24-5 5-5h431.81c2.76 0 5 2.24 5 5s-2.23 5-5 5zm-368.05-19.33c-10.08 0-18.29-8.2-18.29-18.28s8.2-18.29 18.29-18.29c10.08 0 18.29 8.2 18.29 18.29 0 10.07-8.2 18.28-18.29 18.28zm0-26.57c-4.57 0-8.29 3.72-8.29 8.29s3.72 8.29 8.29 8.29 8.29-3.72 8.29-8.29-3.72-8.29-8.29-8.29zm50.71 26.57c-10.08 0-18.29-8.2-18.29-18.28s8.2-18.29 18.29-18.29 18.28 8.2 18.28 18.29-8.2 18.28-18.28 18.28zm0-26.57c-4.57 0-8.29 3.72-8.29 8.29s3.72 8.29 8.29 8.29 8.28-3.72 8.28-8.29-3.72-8.29-8.28-8.29zm50.7 26.57c-10.08 0-18.29-8.2-18.29-18.28s8.2-18.29 18.29-18.29c10.08 0 18.29 8.2 18.29 18.29s-8.21 18.28-18.29 18.28zm0-26.57c-4.57 0-8.29 3.72-8.29 8.29s3.72 8.29 8.29 8.29 8.29-3.72 8.29-8.29-3.73-8.29-8.29-8.29zm163.63 13.28h-123.57c-2.76 0-5-2.24-5-5s2.24-5 5-5h123.57c2.76 0 5 2.24 5 5s-2.24 5-5 5zm52.54 0h-29.11c-2.76 0-5-2.24-5-5s2.24-5 5-5h29.11c2.76 0 5 2.24 5 5s-2.24 5-5 5z" fill="url(#SVGID_1_)"/></svg>