<svg id="Layer_1" enable-background="new 0 0 450 450" height="512" viewBox="0 0 450 450" width="512" xmlns="http://www.w3.org/2000/svg" xmlns:xlink="http://www.w3.org/1999/xlink"><linearGradient id="SVGID_1_" gradientTransform="matrix(1 0 0 -1 0 450)" gradientUnits="userSpaceOnUse" x1="17.498" x2="432.494" y1="432.497" y2="17.501"><stop offset="0" stop-color="#00dbde"/><stop offset="1" stop-color="#fc00ff"/></linearGradient><path d="m417.88 435.49h-385.76c-15.51 0-28.12-12.62-28.12-28.12v-364.74c0-15.51 12.62-28.12 28.12-28.12h385.75c15.51 0 28.12 12.62 28.12 28.12v364.73c.01 15.51-12.61 28.13-28.11 28.13zm-385.76-410.98c-9.99 0-18.12 8.13-18.12 18.12v364.73c0 9.99 8.13 18.12 18.12 18.12h385.75c9.99 0 18.12-8.13 18.12-18.12v-364.73c0-9.99-8.13-18.12-18.12-18.12zm408.88 87.24h-432c-2.76 0-5-2.24-5-5s2.24-5 5-5h432c2.76 0 5 2.24 5 5s-2.24 5-5 5zm-365.59-27.62c-11.58 0-21-9.42-21-21s9.42-21 21-21 21 9.42 21 21-9.42 21-21 21zm0-32c-6.07 0-11 4.93-11 11s4.93 11 11 11 11-4.93 11-11-4.94-11-11-11zm62.24 32c-11.58 0-21-9.42-21-21s9.42-21 21-21 21 9.42 21 21-9.42 21-21 21zm0-32c-6.07 0-11 4.93-11 11s4.93 11 11 11 11-4.93 11-11c0-6.06-4.93-11-11-11zm62.25 32c-11.58 0-21-9.42-21-21s9.42-21 21-21 21 9.42 21 21-9.42 21-21 21zm0-32c-6.07 0-11 4.93-11 11s4.93 11 11 11 11-4.93 11-11-4.94-11-11-11zm194.32 16h-117.76c-2.76 0-5-2.24-5-5s2.24-5 5-5h117.76c2.76 0 5 2.24 5 5s-2.24 5-5 5zm-121.08 319.69h-9.9c-8.31 0-15.07-6.76-15.07-15.07v-32.45c0-8.31 6.76-15.07 15.07-15.07h9.9c8.31 0 15.07 6.76 15.07 15.07v8.2c0 2.76-2.24 5-5 5s-5-2.24-5-5v-8.2c0-2.8-2.28-5.07-5.07-5.07h-9.9c-2.8 0-5.07 2.27-5.07 5.07v32.45c0 2.8 2.28 5.07 5.07 5.07h9.9c2.8 0 5.07-2.27 5.07-5.07v-8.2c0-2.76 2.24-5 5-5s5 2.24 5 5v8.2c0 8.3-6.76 15.07-15.07 15.07zm40.29 0c-.09 0-.18 0-.27-.01-2.76-.15-4.87-2.5-4.73-5.26l.35-6.65h-7.28c-2.76 0-5-2.24-5-5s2.24-5 5-5h7.81l.86-16.05h-6.01c-2.76 0-5-2.24-5-5s2.24-5 5-5h6.54l.38-7.18c.15-2.76 2.5-4.87 5.26-4.73 2.76.15 4.87 2.5 4.73 5.26l-.35 6.65h16.03l.38-7.18c.15-2.76 2.5-4.87 5.26-4.73 2.76.15 4.87 2.5 4.73 5.26l-.36 6.65h7.28c2.76 0 5 2.24 5 5s-2.24 5-5 5h-7.81l-.86 16.05h6.01c2.76 0 5 2.24 5 5s-2.24 5-5 5h-6.54l-.38 7.18c-.15 2.76-2.46 4.88-5.26 4.73-2.76-.15-4.87-2.5-4.73-5.26l.36-6.65h-16.03l-.38 7.18c-.14 2.67-2.35 4.74-4.99 4.74zm5.91-21.92h16.03l.86-16.05h-16.03zm-95.84-34.68h-77.96c-35.62 0-64.6-28.98-64.6-64.6s28.98-64.6 64.6-64.6h97.16c35.62 0 64.6 28.98 64.6 64.6 0 16.07-5.99 31.49-16.88 43.44-1.86 2.04-5.02 2.19-7.06.33s-2.19-5.02-.33-7.06c9.2-10.1 14.27-23.13 14.27-36.7 0-30.11-24.49-54.6-54.6-54.6h-97.16c-30.11 0-54.6 24.49-54.6 54.6s24.49 54.6 54.6 54.6h77.96c2.76 0 5 2.24 5 5s-2.24 4.99-5 4.99zm94.33-72.12c-6.41 0-12.76-.92-18.88-2.72-2.65-.78-4.16-3.56-3.38-6.21s3.57-4.16 6.21-3.38c5.19 1.53 10.59 2.31 16.05 2.31 31.21 0 56.6-25.39 56.6-56.6s-25.39-56.6-56.6-56.6-56.6 25.39-56.6 56.6c0 5.2.71 10.35 2.1 15.32.74 2.66-.81 5.42-3.46 6.16-2.66.74-5.42-.81-6.16-3.46-1.64-5.84-2.47-11.91-2.47-18.02 0-36.73 29.88-66.6 66.6-66.6s66.6 29.88 66.6 66.6c-.01 36.72-29.89 66.6-66.61 66.6zm26.4 152.25h-81.24c-30.24 0-54.83-24.6-54.83-54.83 0-30.24 24.6-54.83 54.83-54.83h81.24c30.23 0 54.83 24.6 54.83 54.83 0 30.24-24.6 54.83-54.83 54.83zm-81.24-99.67c-24.72 0-44.83 20.11-44.83 44.83s20.11 44.83 44.83 44.83h81.24c24.72 0 44.83-20.11 44.83-44.83s-20.11-44.83-44.83-44.83zm-85.9-18.02c-2.76 0-5-2.24-5-5v-44.09c0-2.76 2.24-5 5-5s5 2.24 5 5v44.09c0 2.76-2.24 5-5 5zm34.06 0c-2.76 0-5-2.24-5-5v-44.09c0-2.76 2.24-5 5-5s5 2.24 5 5v44.09c0 2.76-2.24 5-5 5zm0-22.04h-34.06c-2.76 0-5-2.24-5-5s2.24-5 5-5h34.06c2.76 0 5 2.24 5 5s-2.24 5-5 5zm-83.98 22.04c-2.76 0-5-2.24-5-5v-44.09c0-2.76 2.24-5 5-5s5 2.24 5 5v44.09c0 2.76-2.24 5-5 5zm15.28-19.21h-15.27c-2.76 0-5-2.24-5-5v-24.88c0-2.76 2.24-5 5-5h15.27c9.62 0 17.44 7.82 17.44 17.44s-7.83 17.44-17.44 17.44zm-10.28-10h10.27c4.1 0 7.44-3.34 7.44-7.44s-3.34-7.44-7.44-7.44h-10.27zm101.18 29.21c-2.76 0-5-2.24-5-5v-44.09c0-2.76 2.24-5 5-5s5 2.24 5 5v44.09c0 2.76-2.24 5-5 5zm15.28-19.21h-15.27c-2.76 0-5-2.24-5-5v-24.88c0-2.76 2.24-5 5-5h15.27c9.62 0 17.44 7.82 17.44 17.44s-7.83 17.44-17.44 17.44zm-10.28-10h10.27c4.1 0 7.44-3.34 7.44-7.44s-3.34-7.44-7.44-7.44h-10.27zm61.92-48.93h-.54c-8.84 0-16.03-7.19-16.03-16.03 0-2.76 2.24-5 5-5s5 2.24 5 5c0 3.32 2.7 6.03 6.03 6.03h.54c3.62 0 6.57-2.95 6.57-6.57v-28.43c0-2.76 2.24-5 5-5s5 2.24 5 5v28.43c0 9.14-7.43 16.57-16.57 16.57zm36.68 0c-8.27 0-15-6.73-15-15 0-2.76 2.24-5 5-5s5 2.24 5 5 2.24 5 5 5 5-2.24 5-5-2.24-5-5-5c-8.27 0-15-6.73-15-15s6.73-15 15-15 15 6.73 15 15c0 2.76-2.24 5-5 5s-5-2.24-5-5-2.24-5-5-5-5 2.24-5 5 2.24 5 5 5c8.27 0 15 6.73 15 15s-6.73 15-15 15zm-175.85-70.63h-114.21c-2.76 0-5-2.24-5-5s2.24-5 5-5h114.22c2.76 0 5 2.24 5 5s-2.24 5-5.01 5zm0 29.55h-114.21c-2.76 0-5-2.24-5-5s2.24-5 5-5h114.22c2.76 0 5 2.24 5 5s-2.24 5-5.01 5zm-75.57 29.55h-38.64c-2.76 0-5-2.24-5-5s2.24-5 5-5h38.64c2.76 0 5 2.24 5 5s-2.24 5-5 5z" fill="url(#SVGID_1_)"/></svg>