<svg id="Layer_1" enable-background="new 0 0 450 450" height="512" viewBox="0 0 450 450" width="512" xmlns="http://www.w3.org/2000/svg" xmlns:xlink="http://www.w3.org/1999/xlink"><linearGradient id="SVGID_1_" gradientTransform="matrix(1 0 0 -1 0 450)" gradientUnits="userSpaceOnUse" x1="30.769" x2="419.231" y1="419.229" y2="30.768"><stop offset="0" stop-color="#00dbde"/><stop offset="1" stop-color="#fc00ff"/></linearGradient><path d="m64.04 92.8c-5.59 0-10.11-4.53-10.11-10.11 0-5.59 4.53-10.11 10.11-10.11 5.59 0 10.11 4.53 10.11 10.11 0 5.58-4.53 10.11-10.11 10.11zm39.87 0c-5.59 0-10.11-4.53-10.11-10.11 0-5.59 4.53-10.11 10.11-10.11 5.59 0 10.11 4.53 10.11 10.11.01 5.58-4.52 10.11-10.11 10.11zm39.88 0c-5.59 0-10.11-4.53-10.11-10.11 0-5.59 4.53-10.11 10.11-10.11 5.59 0 10.11 4.53 10.11 10.11.01 5.58-4.52 10.11-10.11 10.11zm296.2 29.13c-2.76 0-5-2.24-5-5v-51.15c0-6.8-5.54-12.34-12.34-12.34h-395.31c-6.8 0-12.34 5.53-12.34 12.34v51.15c0 2.76-2.24 5-5 5s-5-2.24-5-5v-51.15c0-12.32 10.02-22.34 22.34-22.34h395.32c12.32 0 22.34 10.02 22.34 22.34v51.15c-.01 2.76-2.24 5-5.01 5zm-17.32 284.63h-395.34c-12.31 0-22.33-10.02-22.33-22.33v-267.3c0-2.76 2.24-5 5-5h429.99c2.76 0 5.01 2.24 5.01 5v267.3c0 12.31-10.02 22.33-22.33 22.33zm-407.67-284.63v262.3c0 6.8 5.53 12.33 12.33 12.33h395.33c6.8 0 12.33-5.53 12.33-12.33v-262.3zm381.96 139.77h-343.92c-2.76 0-5-2.24-5-5v-103.04c0-2.76 2.24-5 5-5h343.92c2.76 0 5 2.24 5 5v103.04c0 2.76-2.24 5-5 5zm-338.92-10h333.92v-93.04h-333.92zm184.56-9.22c-1.05 0-2.1-.33-3-1l-50.04-37.64-43.78 32.93c-2.21 1.66-5.34 1.22-7-.99s-1.22-5.34.99-7l46.78-35.19c1.78-1.34 4.23-1.34 6.01 0l53.05 39.9c2.21 1.66 2.65 4.8.99 7-.99 1.3-2.49 1.99-4 1.99zm154.36-5c-1.05 0-2.1-.33-3-1.01l-38.61-29.05-26.79 20.16c-2.21 1.66-5.34 1.22-7-.99s-1.22-5.34.99-7l29.8-22.42c1.78-1.34 4.23-1.34 6.01 0l41.62 31.31c2.21 1.66 2.65 4.8.99 7-1 1.31-2.5 2-4.01 2zm-221.96 24.22c-1.04 0-2.08-.32-2.98-.98l-67.34-49.98-48.65 36.59c-2.21 1.66-5.34 1.21-7-.99-1.66-2.21-1.22-5.34.99-7l51.63-38.84c1.77-1.33 4.21-1.34 5.99-.02l70.34 52.21c2.22 1.65 2.68 4.78 1.04 6.99-.98 1.32-2.49 2.02-4.02 2.02zm46.97-.01c-1.37 0-2.72-.56-3.71-1.65-1.85-2.05-1.69-5.21.36-7.06l70.33-63.55c1.91-1.73 4.83-1.72 6.73.02l69.41 63.55c2.04 1.86 2.18 5.03.31 7.06-1.87 2.04-5.03 2.18-7.06.31l-66.06-60.48-66.96 60.5c-.95.88-2.15 1.3-3.35 1.3zm17.93-60.37c-8.92 0-16.17-7.25-16.17-16.17s7.25-16.17 16.17-16.17 16.17 7.25 16.17 16.17-7.26 16.17-16.17 16.17zm0-22.34c-3.4 0-6.17 2.77-6.17 6.17s2.77 6.17 6.17 6.17 6.17-2.77 6.17-6.17-2.77-6.17-6.17-6.17zm-94.3 190.84h-89.53c-2.76 0-5-2.24-5-5v-79.76c0-2.76 2.24-5 5-5h89.53c2.76 0 5 2.24 5 5v79.76c0 2.76-2.24 5-5 5zm-84.53-10h79.53v-69.76h-79.53zm208.7 10h-89.53c-2.76 0-5-2.24-5-5v-79.76c0-2.76 2.24-5 5-5h89.53c2.76 0 5 2.24 5 5v79.76c0 2.76-2.24 5-5 5zm-84.54-10h79.53v-69.76h-79.53zm208.7 10h-89.53c-2.76 0-5-2.24-5-5v-79.76c0-2.76 2.24-5 5-5h89.53c2.76 0 5 2.24 5 5v79.76c0 2.76-2.24 5-5 5zm-84.53-10h79.53v-69.76h-79.53z" fill="url(#SVGID_1_)"/></svg>