<svg id="Layer_1" enable-background="new 0 0 492 492" height="512" viewBox="0 0 492 492" width="512" xmlns="http://www.w3.org/2000/svg" xmlns:xlink="http://www.w3.org/1999/xlink"><linearGradient id="SVGID_1_" gradientUnits="userSpaceOnUse" x1="41.77" x2="450.225" y1="41.765" y2="450.22"><stop offset="0" stop-color="#00dbde"/><stop offset="1" stop-color="#fc00ff"/></linearGradient><path d="m161.89 271.04c4.18 0 7.58 3.4 7.58 7.58s-3.4 7.58-7.58 7.58h-10.47v-15.16zm108.19 0c4.18 0 7.58 3.4 7.58 7.58s-3.4 7.58-7.58 7.58h-10.48v-15.16zm-239.08-140.44v301.22c0 10.18 8.28 18.46 18.46 18.46h393.07c10.18 0 18.46-8.28 18.46-18.46v-301.22zm33.51 23.58h116.39c2.81 0 5.09 2.28 5.09 5.09s-2.28 5.09-5.09 5.09h-116.39c-2.81 0-5.09-2.28-5.09-5.09s2.28-5.09 5.09-5.09zm0 30.11h116.39c2.81 0 5.09 2.28 5.09 5.09s-2.28 5.09-5.09 5.09h-116.39c-2.81 0-5.09-2.28-5.09-5.09s2.28-5.09 5.09-5.09zm-5.09 35.21c0-2.82 2.28-5.09 5.09-5.09h39.37c2.81 0 5.09 2.27 5.09 5.09 0 2.81-2.28 5.09-5.09 5.09h-39.37c-2.81 0-5.09-2.28-5.09-5.09zm308.07 216.38h-82.78c-30.81 0-55.88-25.07-55.88-55.87 0-9.29 2.28-18.06 6.32-25.78h-70.11c-36.3 0-65.82-29.53-65.82-65.82s29.53-65.82 65.82-65.82h99c3.23 0 6.4.23 9.5.69-.54-3.43-.8-6.91-.8-10.4 0-37.42 30.44-67.86 67.86-67.86s67.86 30.45 67.86 67.86c0 37.43-30.45 67.87-67.86 67.87-3.79 0-7.57-.32-11.29-.94.37 2.81.56 5.69.56 8.6 0 12.76-3.71 25.13-10.61 35.72h48.24c30.8 0 55.87 25.07 55.87 55.88-.01 30.81-25.08 55.87-55.88 55.87zm0-101.56h-82.78c-14.53 0-27.5 6.82-35.87 17.42-.21.37-.47.7-.76 1-.01.01-.02.01-.02.02-5.68 7.61-9.04 17.05-9.04 27.25 0 25.19 20.49 45.68 45.69 45.68h82.78c25.19 0 45.68-20.49 45.68-45.68s-20.49-45.69-45.68-45.69zm-57.08 37.51c0 2.81-2.27 5.09-5.09 5.09-2.81 0-5.09-2.28-5.09-5.09v-8.35c0-2.85-2.31-5.18-5.17-5.18h-10.09c-2.85 0-5.18 2.32-5.18 5.18v33.05c0 2.85 2.32 5.18 5.18 5.18h10.09c2.85 0 5.17-2.32 5.17-5.18v-8.36c0-2.81 2.28-5.09 5.09-5.09 2.82 0 5.09 2.28 5.09 5.09v8.36c0 8.47-6.89 15.37-15.36 15.37h-10.09c-8.48 0-15.37-6.9-15.37-15.37v-33.05c0-8.48 6.89-15.37 15.37-15.37h10.09c8.47 0 15.36 6.89 15.36 15.37zm67.09 1.39h-7.96l-.87 16.35h6.11c2.82 0 5.09 2.28 5.09 5.09s-2.27 5.09-5.09 5.09h-6.66l-.39 7.32c-.15 2.81-2.51 4.97-5.36 4.82-2.81-.15-4.96-2.55-4.82-5.36l.37-6.78h-16.33l-.4 7.32c-.14 2.72-2.39 4.83-5.08 4.83-.09 0-.18-.01-.28-.01-2.8-.15-4.96-2.55-4.81-5.36l.36-6.78h-7.42c-2.81 0-5.09-2.28-5.09-5.09s2.28-5.09 5.09-5.09h7.96l.88-16.35h-6.12c-2.81 0-5.09-2.28-5.09-5.09s2.28-5.09 5.09-5.09h6.66l.4-7.32c.14-2.81 2.55-4.96 5.36-4.82 2.8.15 4.96 2.56 4.81 5.36l-.36 6.78h16.33l.4-7.32c.14-2.81 2.55-4.96 5.36-4.82 2.8.15 4.96 2.56 4.81 5.36l-.36 6.78h7.41c2.82 0 5.09 2.28 5.09 5.09 0 2.8-2.27 5.09-5.09 5.09zm-18.16 0-.88 16.35h-16.33l.87-16.35zm-18.75-218.02c-31.8 0-57.67 25.87-57.67 57.67 0 4.37.49 8.71 1.46 12.93 20.25 6.59 36.21 22.75 42.54 43.11 4.46 1.09 9.05 1.64 13.67 1.64 31.8 0 57.67-25.88 57.67-57.68s-25.87-57.67-57.67-57.67zm-1.01 64.27c0 9.3-7.57 16.87-16.88 16.87h-.55c-9 0-16.32-7.32-16.32-16.32 0-2.81 2.28-5.09 5.09-5.09s5.09 2.28 5.09 5.09c0 3.38 2.75 6.13 6.13 6.13h.55c3.7 0 6.69-3 6.69-6.68v-28.98c0-2.81 2.28-5.09 5.09-5.09s5.09 2.28 5.09 5.09v28.98zm20.49-13.69c8.43 0 15.28 6.85 15.28 15.27 0 8.44-6.86 15.28-15.28 15.28-8.43 0-15.28-6.85-15.28-15.28 0-2.81 2.28-5.09 5.09-5.09s5.09 2.28 5.09 5.09 2.28 5.09 5.09 5.09 5.09-2.28 5.09-5.09c0-2.8-2.28-5.08-5.09-5.08-8.43 0-15.28-6.86-15.28-15.29s6.86-15.28 15.28-15.28c8.43 0 15.28 6.86 15.28 15.28 0 2.82-2.28 5.09-5.09 5.09s-5.09-2.27-5.09-5.09c0-2.8-2.28-5.09-5.09-5.09s-5.09 2.29-5.09 5.09c0 2.81 2.28 5.1 5.09 5.1zm-42.09 68.97c-.09-.25-.16-.52-.21-.78 0-.02 0-.05-.01-.07-5.11-18.88-19.92-33.81-38.73-39.08-.17-.03-.34-.07-.51-.13-4.62-1.25-9.47-1.92-14.48-1.92h-99c-30.68 0-55.64 24.95-55.64 55.63 0 30.67 24.95 55.64 55.64 55.64h76.95c10.25-12.17 25.61-19.91 42.72-19.91h21.88c8.45-10.04 13.08-22.64 13.08-35.72 0-4.71-.59-9.28-1.69-13.66zm-156.09 21.64h-10.47v14.48c0 2.81-2.28 5.09-5.09 5.09s-5.09-2.28-5.09-5.09v-44.93c0-2.81 2.28-5.09 5.09-5.09h15.57c9.79 0 17.77 7.97 17.77 17.77-.01 9.8-7.99 17.77-17.78 17.77zm75.09 14.48c0 2.81-2.28 5.09-5.09 5.09s-5.09-2.28-5.09-5.09v-17.37h-24.52v17.36c0 2.81-2.28 5.09-5.09 5.09s-5.09-2.28-5.09-5.09v-44.93c0-2.81 2.28-5.09 5.09-5.09s5.09 2.28 5.09 5.09v17.37h24.52v-17.37c0-2.81 2.28-5.09 5.09-5.09s5.09 2.28 5.09 5.09zm33.1-14.48h-10.48v14.48c0 2.81-2.28 5.09-5.09 5.09s-5.09-2.28-5.09-5.09v-44.93c0-2.81 2.28-5.09 5.09-5.09h15.57c9.79 0 17.77 7.97 17.77 17.77s-7.98 17.77-17.77 17.77zm-57.59-223.25c4.38-4.38 11.48-4.38 15.85 0s4.38 11.48 0 15.85-11.48 4.38-15.85 0c-4.38-4.38-4.38-11.47 0-15.85zm-63.43 0c4.38-4.38 11.48-4.38 15.85 0 4.38 4.38 4.38 11.48 0 15.85-4.38 4.38-11.48 4.38-15.85 0s-4.38-11.48 0-15.85zm-63.68.26c4.23-4.52 11.32-4.75 15.84-.52s4.75 11.32.52 15.84-11.32 4.75-15.84.52-4.75-11.32-.52-15.84zm357.16-31.69h-393.08c-10.18 0-18.46 8.28-18.46 18.46v60.24h430v-60.24c0-10.18-8.28-18.46-18.46-18.46zm-348.97 60.75c-11.8 0-21.4-9.6-21.4-21.4s9.6-21.4 21.4-21.4 21.4 9.6 21.4 21.4-9.6 21.4-21.4 21.4zm63.42 0c-11.8 0-21.4-9.6-21.4-21.4s9.6-21.4 21.4-21.4 21.4 9.6 21.4 21.4-9.6 21.4-21.4 21.4zm63.43 0c-11.8 0-21.4-9.6-21.4-21.4s9.6-21.4 21.4-21.4 21.4 9.6 21.4 21.4-9.6 21.4-21.4 21.4zm198.01-16.3h-119.99c-2.81 0-5.09-2.28-5.09-5.09s2.28-5.09 5.09-5.09h119.99c2.81 0 5.09 2.28 5.09 5.09 0 2.8-2.28 5.09-5.09 5.09z" fill="url(#SVGID_1_)"/></svg>